# Made in Blockbench 4.11.2
mtllib calendar1.mtl

o cube
v 0.375 0.40402055273649873 0.16800170620989682
v 0.375 0.40425972988172687 0.1674242815020774
v 0.375 -0.00017674273718917832 0.0005777045501700745
v 0.375 0.00006243440803893607 2.7984235063949203e-7
v -0.3125 0.40425972988172687 0.1674242815020774
v -0.3125 0.40402055273649873 0.16800170620989682
v -0.3125 0.00006243440803893607 2.7984235063949203e-7
v -0.3125 -0.00017674273718917832 0.0005777045501700745
vt 0.34375 1
vt 0.6875 1
vt 0.6875 0.78125
vt 0.34375 0.78125
vt 0 1
vt 0 1
vt 0 0.78125
vt 0 0.78125
vt 0.34375 0.78125
vt 0.6875 0.78125
vt 0.6875 0.5625
vt 0.34375 0.5625
vt 0 1
vt 0 1
vt 0 0.78125
vt 0 0.78125
vt 0.34375 1
vt 0 1
vt 0 1
vt 0.34375 1
vt 0.34375 1
vt 0 1
vt 0 1
vt 0.34375 1
vn 0 0.3826834323650897 -0.9238795325112867
vn 1 0 0
vn 0 -0.3826834323650897 0.9238795325112867
vn -1 0 0
vn 0 0.9238795325112867 0.3826834323650897
vn 0 -0.9238795325112867 -0.3826834323650897
usemtl m_596b6a0f-2f0d-e298-2721-a8a4e965596d
f 4/4/1 7/3/1 5/2/1 2/1/1
f 3/8/2 4/7/2 2/6/2 1/5/2
f 8/12/3 3/11/3 1/10/3 6/9/3
f 7/16/4 8/15/4 6/14/4 5/13/4
f 6/20/5 1/19/5 2/18/5 5/17/5
f 7/24/6 4/23/6 3/22/6 8/21/6
o cube
v 0.375 0.404020736309458 0.16800171152404636
v 0.375 0.40378155916422986 0.1674242868162269
v 0.375 -0.00017655916422990026 0.3354257131837731
v 0.375 -0.0004157363094580424 0.33484828847595366
v -0.3125 0.40378155916422986 0.1674242868162269
v -0.3125 0.404020736309458 0.16800171152404636
v -0.3125 -0.0004157363094580424 0.33484828847595366
v -0.3125 -0.00017655916422990026 0.3354257131837731
vt 0 1
vt 0.34375 1
vt 0.34375 0.78125
vt 0 0.78125
vt 0 1
vt 0 1
vt 0 0.78125
vt 0 0.78125
vt 0 0.78125
vt 0.34375 0.78125
vt 0.34375 0.5625
vt 0 0.5625
vt 0 1
vt 0 1
vt 0 0.78125
vt 0 0.78125
vt 0.34375 1
vt 0 1
vt 0 1
vt 0.34375 1
vt 0.34375 1
vt 0 1
vt 0 1
vt 0.34375 1
vn 0 -0.3826834323650897 -0.9238795325112867
vn 1 0 0
vn 0 0.3826834323650897 0.9238795325112867
vn -1 0 0
vn 0 0.9238795325112867 -0.3826834323650897
vn 0 -0.9238795325112867 0.3826834323650897
usemtl m_596b6a0f-2f0d-e298-2721-a8a4e965596d
f 12/28/7 15/27/7 13/26/7 10/25/7
f 11/32/8 12/31/8 10/30/8 9/29/8
f 16/36/9 11/35/9 9/34/9 14/33/9
f 15/40/10 16/39/10 14/38/10 13/37/10
f 14/44/11 9/43/11 10/42/11 13/41/11
f 15/48/12 12/47/12 11/46/12 16/45/12